<?xml version="1.0" standalone="no"?>
<!DOCTYPE svg PUBLIC "-//W3C//DTD SVG 20010904//EN"
 "http://www.w3.org/TR/2001/REC-SVG-20010904/DTD/svg10.dtd">
<svg version="1.0" xmlns="http://www.w3.org/2000/svg"
 width="300.000000pt" height="200.000000pt" viewBox="0 0 300.000000 200.000000"
 preserveAspectRatio="xMidYMid meet">

<g transform="translate(0.000000,200.000000) scale(0.100000,-0.100000)"
fill="#000000" stroke="none">
<path d="M987 1297 c-33 -148 -33 -149 -5 -145 18 3 24 15 38 80 9 43 19 80
22 83 3 3 9 -25 12 -62 10 -93 14 -103 40 -103 18 0 32 18 69 83 50 88 55 87
32 -8 -19 -77 -19 -75 8 -75 22 0 25 8 50 128 15 70 27 130 27 135 0 4 -12 7
-27 7 -30 0 -31 -2 -109 -145 -24 -44 -44 -75 -44 -68 0 18 -20 165 -25 191
-4 16 -12 22 -34 22 -28 0 -28 -1 -54 -123z"/>
<path d="M1562 1404 c-12 -8 -22 -24 -22 -35 0 -10 -6 -19 -14 -19 -19 0 -26
-23 -10 -35 11 -8 10 -22 -2 -74 -8 -35 -13 -70 -10 -77 8 -20 76 -19 76 1 0
8 -7 15 -16 15 -14 0 -15 7 -9 47 9 64 22 93 40 93 8 0 15 7 15 15 0 8 -6 15
-14 15 -11 0 -13 9 -9 35 6 40 6 41 -25 19z"/>
<path d="M1350 1343 c-20 -7 -50 -34 -50 -45 0 -13 39 -9 64 7 27 18 56 10 56
-15 0 -14 -11 -18 -54 -22 -66 -5 -86 -20 -86 -63 0 -46 17 -55 97 -53 l70 1
13 80 c13 79 13 81 -10 99 -21 17 -68 23 -100 11z m60 -115 c0 -20 -32 -48
-57 -48 -31 0 -42 29 -18 46 23 17 75 18 75 2z"/>
<path d="M1673 1340 c-56 -23 -83 -130 -43 -170 31 -31 96 -27 132 7 15 15 28
30 28 35 0 15 -31 8 -59 -13 -31 -23 -65 -20 -75 7 -11 28 4 34 75 34 l69 0 0
34 c0 59 -63 92 -127 66z m71 -36 c27 -26 18 -34 -36 -34 l-53 1 28 24 c33 29
40 30 61 9z"/>
<path d="M1859 1308 c-7 -24 -13 -68 -13 -98 l-1 -55 73 -1 c70 -2 72 -1 78
25 3 14 12 51 20 82 19 75 18 89 -5 89 -15 0 -22 -12 -31 -52 -18 -74 -36
-107 -66 -114 -14 -4 -28 -3 -31 0 -6 6 6 80 23 144 5 18 2 22 -14 22 -16 0
-24 -10 -33 -42z"/>
<path d="M2103 1341 c-26 -12 -38 -44 -24 -69 5 -10 28 -27 51 -37 47 -21 51
-48 8 -53 -19 -2 -31 3 -40 17 -18 30 -48 27 -48 -4 0 -30 26 -45 79 -45 53 0
71 8 82 37 12 33 -3 59 -48 81 -20 9 -38 22 -40 28 -6 19 29 25 53 9 25 -16
54 -20 54 -7 0 36 -79 63 -127 43z"/>
<path d="M670 858 c-13 -62 -25 -123 -28 -135 -4 -19 0 -23 21 -23 22 0 26 5
32 46 9 65 14 74 39 74 34 0 63 -26 82 -75 13 -36 22 -45 40 -45 30 0 30 14
-1 69 -14 23 -25 44 -25 46 0 1 13 8 30 15 56 23 61 119 6 134 -11 3 -55 6
-97 6 l-76 0 -23 -112z m178 70 c17 -17 15 -38 -5 -60 -12 -13 -31 -18 -71
-18 l-54 0 7 37 c4 21 9 41 11 45 8 13 99 9 112 -4z"/>
<path d="M1304 930 c-6 -40 -7 -40 -44 -34 -21 4 -47 1 -59 -6 -53 -28 -78
-121 -45 -168 14 -20 23 -22 82 -20 l67 3 21 101 c12 56 24 116 27 133 6 28 4
31 -18 31 -21 0 -26 -6 -31 -40z m-24 -114 c0 -35 -32 -86 -55 -86 -7 0 -21 7
-30 17 -37 37 21 137 66 113 13 -7 19 -21 19 -44z"/>
<path d="M1547 963 c-14 -13 -6 -23 18 -23 16 0 25 6 25 15 0 15 -31 21 -43 8z"/>
<path d="M993 890 c-32 -13 -63 -69 -63 -112 0 -53 27 -78 86 -78 37 0 51 5
75 29 24 25 29 38 29 78 0 27 -6 57 -13 67 -15 20 -82 30 -114 16z m69 -37
c26 -23 23 -69 -7 -98 -28 -29 -47 -31 -70 -8 -23 22 -13 71 21 101 30 26 32
27 56 5z"/>
<path d="M1374 800 l-21 -100 22 0 c18 0 23 9 34 61 12 62 45 109 74 109 8 0
17 7 21 15 6 18 -25 21 -55 5 -13 -7 -19 -7 -19 0 0 5 -8 10 -18 10 -14 0 -21
-19 -38 -100z"/>
<path d="M1516 818 c-9 -46 -19 -91 -22 -100 -4 -14 1 -18 18 -18 22 0 25 7
41 83 22 104 21 117 -1 117 -15 0 -22 -16 -36 -82z"/>
<path d="M1642 884 c-49 -34 -67 -118 -36 -163 14 -19 24 -22 60 -19 49 4 51
2 28 -30 -18 -25 -46 -29 -64 -7 -16 19 -50 20 -50 1 0 -31 31 -47 83 -44 66
4 81 25 107 152 25 121 25 126 0 126 -11 0 -20 -5 -20 -10 0 -7 -6 -7 -19 0
-28 14 -63 12 -89 -6z m90 -52 c6 -23 -13 -72 -35 -90 -20 -17 -54 -7 -62 18
-15 48 38 120 75 100 10 -5 20 -18 22 -28z"/>
<path d="M1839 858 c-7 -24 -13 -68 -13 -98 l-1 -55 73 -1 c70 -2 72 -1 78 25
3 14 12 51 20 82 19 75 18 89 -5 89 -15 0 -22 -12 -31 -52 -18 -74 -36 -107
-66 -114 -14 -4 -28 -3 -31 0 -6 6 6 80 23 144 5 18 2 22 -14 22 -16 0 -24
-10 -33 -42z"/>
<path d="M2093 890 c-56 -23 -83 -130 -43 -170 31 -31 96 -27 132 7 15 15 28
30 28 35 0 15 -31 8 -59 -13 -31 -23 -65 -20 -75 7 -11 28 4 34 75 34 l69 0 0
34 c0 59 -63 92 -127 66z m71 -36 c27 -26 18 -34 -36 -34 l-53 1 28 24 c33 29
40 30 61 9z"/>
<path d="M2303 891 c-26 -12 -38 -44 -24 -69 5 -10 28 -27 51 -37 47 -21 51
-48 8 -53 -19 -2 -31 3 -40 17 -18 30 -48 27 -48 -4 0 -30 26 -45 79 -45 53 0
71 8 82 37 12 33 -3 59 -48 81 -20 9 -38 22 -40 28 -6 19 29 25 53 9 25 -16
54 -20 54 -7 0 36 -79 63 -127 43z"/>
</g>
</svg>
