<?xml version="1.0" standalone="no"?>
<!DOCTYPE svg PUBLIC "-//W3C//DTD SVG 20010904//EN"
 "http://www.w3.org/TR/2001/REC-SVG-20010904/DTD/svg10.dtd">
<svg version="1.0" xmlns="http://www.w3.org/2000/svg"
 width="300.000000pt" height="167.000000pt" viewBox="0 0 300.000000 167.000000"
 preserveAspectRatio="xMidYMid meet">

<g transform="translate(0.000000,167.000000) scale(0.100000,-0.100000)"
fill="#000000" stroke="none">
<path d="M1643 1505 c-24 -30 -40 -39 -108 -56 -44 -11 -97 -25 -117 -30 -39
-10 -58 -40 -39 -63 9 -11 21 -10 64 5 88 30 138 39 129 24 -21 -35 -107 -125
-120 -125 -9 0 -29 -12 -44 -27 -30 -29 -36 -22 -13 17 15 27 20 69 8 71 -36
4 -61 8 -78 12 -41 10 -136 -53 -175 -115 -23 -37 -15 -82 17 -97 28 -13 46
-6 111 47 36 30 42 32 42 15 0 -23 18 -43 38 -43 16 0 147 83 157 100 13 22
25 8 25 -30 0 -55 18 -92 44 -88 18 3 21 9 18 43 -9 119 -3 151 38 198 11 12
25 30 32 40 8 10 30 19 57 21 46 4 71 24 71 58 0 19 -16 21 -60 9 -21 -6 -27
-3 -37 21 -16 37 -25 35 -60 -7z m-348 -265 c-24 -27 -84 -64 -92 -57 -12 13
66 76 96 77 11 0 10 -5 -4 -20z"/>
<path d="M1085 1498 c-11 -6 -45 -32 -75 -57 -33 -29 -51 -39 -47 -27 10 26 0
54 -24 67 -27 14 -86 -21 -161 -96 -32 -32 -58 -55 -58 -53 0 3 12 26 26 52
45 81 9 113 -87 76 -110 -42 -184 -85 -187 -108 -5 -31 24 -39 51 -16 52 45
142 92 153 81 2 -2 -12 -29 -31 -60 -65 -107 -107 -196 -103 -219 2 -16 11
-24 30 -26 22 -3 33 6 69 55 57 77 129 153 184 192 25 18 45 30 45 26 0 -3
-14 -31 -30 -62 -17 -32 -30 -69 -28 -83 6 -50 35 -35 130 65 51 53 101 101
111 107 20 10 20 10 0 -23 -70 -119 -84 -150 -81 -185 2 -27 11 -43 31 -57 36
-27 50 -13 51 50 1 36 9 60 33 98 67 103 88 152 77 182 -11 31 -45 41 -79 21z"/>
<path d="M2379 1338 c-18 -36 -61 -78 -79 -78 -9 0 -27 -11 -40 -25 -32 -34
-42 -31 -25 8 12 30 12 37 -1 55 -24 34 -51 26 -113 -33 -32 -30 -61 -55 -64
-55 -4 0 1 15 10 34 31 65 -5 92 -76 57 -60 -30 -59 -29 -132 -78 -35 -24 -75
-43 -88 -43 -24 0 -23 1 10 25 19 13 39 28 45 33 5 5 20 15 32 21 34 18 45 47
26 65 -44 44 -135 1 -180 -85 -28 -56 5 -119 64 -119 28 0 109 40 150 74 34
29 57 34 48 10 -8 -21 20 -71 45 -79 21 -7 31 -1 103 65 33 31 37 32 31 12 -8
-26 17 -72 39 -72 15 0 90 46 164 100 32 23 42 27 42 15 0 -29 -31 -66 -51
-60 -25 8 -59 -12 -59 -34 0 -20 14 -34 42 -44 34 -12 219 105 234 147 12 34
-11 37 -53 7 l-41 -29 -6 44 c-3 25 -10 54 -16 64 -14 27 -47 25 -61 -2z"/>
<path d="M331 694 c-76 -17 -111 -37 -111 -64 0 -27 33 -26 71 2 41 30 190 38
273 14 31 -9 56 -20 56 -25 0 -10 -64 -35 -142 -54 -62 -16 -63 -16 -47 14 8
16 7 26 -6 45 -19 30 -55 33 -55 4 0 -42 -42 -108 -81 -125 -44 -20 -54 -38
-34 -59 20 -20 19 -29 -10 -85 -22 -42 -24 -52 -14 -75 8 -17 20 -26 35 -26
19 0 25 9 39 55 8 30 18 55 22 55 3 0 53 -46 110 -102 110 -109 128 -121 156
-106 40 21 22 42 -140 170 -57 44 -103 83 -103 87 0 3 9 20 19 37 17 28 28 33
122 53 121 25 168 46 188 82 19 35 -2 78 -49 101 -44 22 -203 23 -299 2z"/>
<path d="M1236 698 c-21 -12 -101 -134 -122 -188 -14 -35 -18 -38 -38 -29 -82
38 -223 -152 -160 -215 27 -28 55 -18 106 34 26 28 50 50 53 50 3 0 5 -8 5
-19 0 -43 60 -57 106 -25 38 27 145 94 150 94 2 0 -6 -20 -18 -46 -21 -41 -21
-47 -7 -72 27 -49 72 -43 152 23 31 25 60 45 65 45 5 0 15 7 22 15 21 25 31
17 24 -20 -15 -84 20 -107 91 -59 l38 25 24 -25 c29 -32 49 -33 93 -3 91 61
89 61 83 38 -7 -26 -17 -34 -75 -55 -79 -29 -146 -127 -136 -196 2 -19 10 -26
30 -28 23 -3 39 8 90 60 35 35 71 76 81 91 11 17 27 27 42 27 27 0 36 17 23
46 -7 15 -3 37 16 84 29 72 28 90 -10 107 -36 17 -123 -11 -176 -56 -31 -26
-42 -31 -48 -21 -7 11 -17 8 -50 -14 -46 -30 -58 -29 -40 4 15 28 9 81 -12 93
-13 9 -25 4 -57 -19 -23 -16 -56 -38 -74 -49 -18 -11 -55 -35 -82 -53 -56 -37
-70 -28 -30 20 22 25 26 39 21 66 -6 39 -22 62 -43 62 -8 0 -34 -16 -58 -36
-24 -20 -51 -37 -58 -38 -8 -1 -35 -19 -60 -39 -26 -21 -48 -33 -52 -27 -9 14
12 84 34 111 57 73 115 197 105 223 -8 20 -27 26 -48 14z m-193 -312 c-23 -29
-83 -81 -83 -71 0 20 34 65 62 83 40 25 47 21 21 -12z m812 -31 c-28 -23 -45
-31 -45 -21 0 5 63 46 70 46 3 0 -8 -11 -25 -25z m-25 -155 c0 -12 -77 -90
-89 -90 -18 0 2 41 36 70 35 31 53 38 53 20z"/>
<path d="M1660 595 c-10 -12 -9 -20 4 -40 14 -21 20 -24 36 -15 23 12 25 23
10 51 -13 23 -33 25 -50 4z"/>
<path d="M2744 492 c-6 -4 -20 -24 -33 -45 -13 -20 -28 -36 -35 -35 -6 2 -43
-18 -81 -44 -39 -26 -83 -50 -100 -53 l-30 -6 30 26 c17 14 49 38 72 53 24 15
45 33 48 41 9 23 -22 45 -61 44 -42 -1 -79 -26 -112 -73 -34 -51 -38 -78 -15
-108 42 -57 133 -31 272 77 l44 35 -7 -29 c-11 -42 -23 -54 -55 -53 -36 1 -51
-8 -51 -31 0 -30 35 -54 67 -46 60 15 213 126 213 155 0 23 -30 21 -63 -4
l-35 -27 -6 38 c-4 21 -9 46 -12 56 -6 21 -36 38 -50 29z"/>
<path d="M705 456 c-61 -29 -107 -72 -102 -94 2 -10 9 -16 15 -14 7 1 12 -9
12 -24 0 -15 12 -38 29 -54 31 -32 51 -31 120 4 47 25 77 95 60 139 -14 37
-44 67 -68 67 -9 0 -38 -11 -66 -24z m73 -84 c3 -22 -45 -82 -67 -82 -19 0
-12 56 10 84 25 31 53 31 57 -2z"/>
<path d="M2082 433 c-42 -28 -59 -54 -47 -74 4 -6 13 -8 19 -6 9 4 11 -3 8
-19 -5 -28 31 -74 57 -74 9 0 40 21 69 46 49 43 52 44 52 22 0 -29 36 -71 53
-61 62 37 117 86 117 106 0 31 -22 29 -57 -4 -34 -32 -35 -33 -29 -9 19 64 18
68 -7 85 -32 20 -45 14 -112 -54 -27 -28 -53 -51 -57 -51 -5 0 2 18 14 39 22
39 22 40 4 60 -25 27 -34 26 -84 -6z"/>
</g>
</svg>
